<svg width="1232" height="190" viewBox="0 0 1232 190" fill="none" xmlns="http://www.w3.org/2000/svg">
<mask id="path-1-outside-1_2313_2095" maskUnits="userSpaceOnUse" x="0" y="0" width="1232" height="219" fill="black">
<rect fill="white" width="1232" height="219"/>
<path d="M1 214V55H24.1L25 95.2L21.4 94C23.2 85.2 26.3 77.7 30.7 71.5C35.3 65.1 40.9 60.2 47.5 56.8C54.1 53.2 61.4 51.4 69.4 51.4C83.2 51.4 94.4 55.2 103 62.8C111.8 70.4 117.3 81 119.5 94.6L114.7 94.3C116.3 85.1 119.2 77.4 123.4 71.2C127.8 64.8 133.4 59.9 140.2 56.5C147 53.1 154.8 51.4 163.6 51.4C175 51.4 184.6 53.8 192.4 58.6C200.2 63.2 206.1 70 210.1 79C214.1 88 216.1 98.9 216.1 111.7V214H190.9V117.1C190.9 102.7 188.1 91.9 182.5 84.7C176.9 77.3 168.6 73.6 157.6 73.6C150.2 73.6 143.7 75.4 138.1 79C132.7 82.6 128.5 87.8 125.5 94.6C122.5 101.2 121 109.3 121 118.9V214H95.8V118.9C95.8 104.7 93.3 93.6 88.3 85.6C83.3 77.6 74.9 73.6 63.1 73.6C55.7 73.6 49.2 75.4 43.6 79C38.2 82.6 33.9 87.8 30.7 94.6C27.7 101.4 26.2 109.5 26.2 118.9V214H1ZM310.67 217.6C295.67 217.6 282.67 214.2 271.67 207.4C260.87 200.6 252.47 191 246.47 178.6C240.67 166 237.77 151.3 237.77 134.5C237.77 117.7 240.67 103.1 246.47 90.7C252.47 78.3 260.77 68.7 271.37 61.9C282.17 54.9 294.87 51.4 309.47 51.4C323.27 51.4 335.47 54.7 346.07 61.3C356.67 67.7 364.87 77.1 370.67 89.5C376.67 101.9 379.67 117 379.67 134.8V142.3H264.17C265.17 159.3 269.67 172.1 277.67 180.7C285.87 189.3 296.87 193.6 310.67 193.6C321.07 193.6 329.57 191.2 336.17 186.4C342.97 181.4 347.67 174.9 350.27 166.9L377.27 169C373.07 183.2 365.07 194.9 353.27 204.1C341.67 213.1 327.47 217.6 310.67 217.6ZM264.17 120.1H352.07C350.87 104.7 346.37 93.4 338.57 86.2C330.97 79 321.27 75.4 309.47 75.4C297.27 75.4 287.17 79.2 279.17 86.8C271.37 94.2 266.37 105.3 264.17 120.1ZM401.805 214V55H424.005L425.205 95.2L422.805 94.3C424.805 80.7 429.105 70.8 435.705 64.6C442.505 58.2 451.505 55 462.705 55H478.305V79H463.005C455.005 79 448.305 80.5 442.905 83.5C437.705 86.3 433.705 90.6 430.905 96.4C428.305 102 427.005 109.2 427.005 118V214H401.805ZM553.565 217.6C538.765 217.6 525.865 214.2 514.865 207.4C504.065 200.6 495.665 191 489.665 178.6C483.665 166 480.665 151.3 480.665 134.5C480.665 117.7 483.665 103.1 489.665 90.7C495.665 78.3 504.065 68.7 514.865 61.9C525.865 54.9 538.765 51.4 553.565 51.4C565.765 51.4 576.565 53.6 585.965 58C595.565 62.2 603.365 68.4 609.365 76.6C615.365 84.8 619.265 94.8 621.065 106.6L594.665 108.4C592.865 97.8 588.265 89.7 580.865 84.1C573.465 78.3 564.365 75.4 553.565 75.4C538.965 75.4 527.565 80.7 519.365 91.3C511.165 101.7 507.065 116.1 507.065 134.5C507.065 152.9 511.165 167.4 519.365 178C527.565 188.4 538.965 193.6 553.565 193.6C564.365 193.6 573.465 190.6 580.865 184.6C588.265 178.6 592.865 169.6 594.665 157.6L621.065 159.4C619.265 171.2 615.365 181.5 609.365 190.3C603.365 198.9 595.565 205.6 585.965 210.4C576.565 215.2 565.765 217.6 553.565 217.6ZM702.405 217.6C687.405 217.6 674.405 214.2 663.405 207.4C652.605 200.6 644.205 191 638.205 178.6C632.405 166 629.505 151.3 629.505 134.5C629.505 117.7 632.405 103.1 638.205 90.7C644.205 78.3 652.505 68.7 663.105 61.9C673.905 54.9 686.605 51.4 701.205 51.4C715.005 51.4 727.205 54.7 737.805 61.3C748.405 67.7 756.605 77.1 762.405 89.5C768.405 101.9 771.405 117 771.405 134.8V142.3H655.905C656.905 159.3 661.405 172.1 669.405 180.7C677.605 189.3 688.605 193.6 702.405 193.6C712.805 193.6 721.305 191.2 727.905 186.4C734.705 181.4 739.405 174.9 742.005 166.9L769.005 169C764.805 183.2 756.805 194.9 745.005 204.1C733.405 213.1 719.205 217.6 702.405 217.6ZM655.905 120.1H743.805C742.605 104.7 738.105 93.4 730.305 86.2C722.705 79 713.005 75.4 701.205 75.4C689.005 75.4 678.905 79.2 670.905 86.8C663.105 94.2 658.105 105.3 655.905 120.1ZM849.939 217.6C836.139 217.6 824.139 214.2 813.939 207.4C803.939 200.6 796.239 191 790.839 178.6C785.439 166.2 782.739 151.5 782.739 134.5C782.739 117.5 785.439 102.8 790.839 90.4C796.239 78 803.939 68.4 813.939 61.6C824.139 54.8 836.139 51.4 849.939 51.4C860.539 51.4 870.239 53.7 879.039 58.3C887.839 62.7 894.439 69 898.839 77.2V0.999989H924.039V214H901.239L900.339 190C895.939 198.6 889.239 205.4 880.239 210.4C871.239 215.2 861.139 217.6 849.939 217.6ZM855.039 193.6C864.439 193.6 872.339 191.2 878.739 186.4C885.339 181.6 890.339 174.8 893.739 166C897.139 157 898.839 146.5 898.839 134.5C898.839 122.1 897.139 111.5 893.739 102.7C890.339 93.9 885.339 87.2 878.739 82.6C872.339 77.8 864.439 75.4 855.039 75.4C841.039 75.4 829.839 80.7 821.439 91.3C813.239 101.7 809.139 116.1 809.139 134.5C809.139 152.7 813.239 167.1 821.439 177.7C829.839 188.3 841.039 193.6 855.039 193.6ZM1019.13 217.6C1004.13 217.6 991.127 214.2 980.127 207.4C969.327 200.6 960.927 191 954.927 178.6C949.127 166 946.227 151.3 946.227 134.5C946.227 117.7 949.127 103.1 954.927 90.7C960.927 78.3 969.227 68.7 979.827 61.9C990.627 54.9 1003.33 51.4 1017.93 51.4C1031.73 51.4 1043.93 54.7 1054.53 61.3C1065.13 67.7 1073.33 77.1 1079.13 89.5C1085.13 101.9 1088.13 117 1088.13 134.8V142.3H972.627C973.627 159.3 978.127 172.1 986.127 180.7C994.327 189.3 1005.33 193.6 1019.13 193.6C1029.53 193.6 1038.03 191.2 1044.63 186.4C1051.43 181.4 1056.13 174.9 1058.73 166.9L1085.73 169C1081.53 183.2 1073.53 194.9 1061.73 204.1C1050.13 213.1 1035.93 217.6 1019.13 217.6ZM972.627 120.1H1060.53C1059.33 104.7 1054.83 93.4 1047.03 86.2C1039.43 79 1029.73 75.4 1017.93 75.4C1005.73 75.4 995.627 79.2 987.627 86.8C979.827 94.2 974.827 105.3 972.627 120.1ZM1168.16 217.6C1153.96 217.6 1141.86 215.3 1131.86 210.7C1122.06 206.1 1114.36 199.8 1108.76 191.8C1103.36 183.6 1100.26 174.3 1099.46 163.9L1125.86 162.1C1127.46 171.7 1131.56 179.4 1138.16 185.2C1144.76 190.8 1154.76 193.6 1168.16 193.6C1178.96 193.6 1187.56 191.9 1193.96 188.5C1200.56 184.9 1203.86 179.2 1203.86 171.4C1203.86 167.2 1202.86 163.7 1200.86 160.9C1198.86 158.1 1194.96 155.7 1189.16 153.7C1183.36 151.5 1174.76 149.4 1163.36 147.4C1148.16 144.6 1136.16 141.2 1127.36 137.2C1118.76 133 1112.56 127.9 1108.76 121.9C1105.16 115.7 1103.36 108.4 1103.36 100C1103.36 85.8 1108.56 74.2 1118.96 65.2C1129.36 56 1144.16 51.4 1163.36 51.4C1176.36 51.4 1187.26 53.8 1196.06 58.6C1205.06 63.2 1212.06 69.4 1217.06 77.2C1222.26 84.8 1225.66 93.2 1227.26 102.4L1200.86 104.2C1199.66 98.6 1197.46 93.7 1194.26 89.5C1191.06 85.1 1186.86 81.7 1181.66 79.3C1176.46 76.7 1170.26 75.4 1163.06 75.4C1151.66 75.4 1143.26 77.6 1137.86 82C1132.46 86.4 1129.76 92 1129.76 98.8C1129.76 104 1130.96 108.3 1133.36 111.7C1135.96 114.9 1140.06 117.6 1145.66 119.8C1151.26 121.8 1158.76 123.6 1168.16 125.2C1184.36 128 1196.96 131.4 1205.96 135.4C1214.96 139.4 1221.26 144.3 1224.86 150.1C1228.46 155.9 1230.26 163 1230.26 171.4C1230.26 181.2 1227.46 189.6 1221.86 196.6C1216.46 203.4 1209.06 208.6 1199.66 212.2C1190.46 215.8 1179.96 217.6 1168.16 217.6Z"/>
</mask>
<path d="M1 214V55H24.1L25 95.2L21.4 94C23.2 85.2 26.3 77.7 30.7 71.5C35.3 65.1 40.9 60.2 47.5 56.8C54.1 53.2 61.4 51.4 69.4 51.4C83.2 51.4 94.4 55.2 103 62.8C111.8 70.4 117.3 81 119.5 94.6L114.7 94.3C116.3 85.1 119.2 77.4 123.4 71.2C127.8 64.8 133.4 59.9 140.2 56.5C147 53.1 154.8 51.4 163.6 51.4C175 51.4 184.6 53.8 192.4 58.6C200.2 63.2 206.1 70 210.1 79C214.1 88 216.1 98.9 216.1 111.7V214H190.9V117.1C190.9 102.7 188.1 91.9 182.5 84.7C176.9 77.3 168.6 73.6 157.6 73.6C150.2 73.6 143.7 75.4 138.1 79C132.7 82.6 128.5 87.8 125.5 94.6C122.5 101.2 121 109.3 121 118.9V214H95.8V118.9C95.8 104.7 93.3 93.6 88.3 85.6C83.3 77.6 74.9 73.6 63.1 73.6C55.7 73.6 49.2 75.4 43.6 79C38.2 82.6 33.9 87.8 30.7 94.6C27.7 101.4 26.2 109.5 26.2 118.9V214H1ZM310.67 217.6C295.67 217.6 282.67 214.2 271.67 207.4C260.87 200.6 252.47 191 246.47 178.6C240.67 166 237.77 151.3 237.77 134.5C237.77 117.7 240.67 103.1 246.47 90.7C252.47 78.3 260.77 68.7 271.37 61.9C282.17 54.9 294.87 51.4 309.47 51.4C323.27 51.4 335.47 54.7 346.07 61.3C356.67 67.7 364.87 77.1 370.67 89.5C376.67 101.9 379.67 117 379.67 134.8V142.3H264.17C265.17 159.3 269.67 172.1 277.67 180.7C285.87 189.3 296.87 193.6 310.67 193.6C321.07 193.6 329.57 191.2 336.17 186.4C342.97 181.4 347.67 174.9 350.27 166.9L377.27 169C373.07 183.2 365.07 194.9 353.27 204.1C341.67 213.1 327.47 217.6 310.67 217.6ZM264.17 120.1H352.07C350.87 104.7 346.37 93.4 338.57 86.2C330.97 79 321.27 75.4 309.47 75.4C297.27 75.4 287.17 79.2 279.17 86.8C271.37 94.2 266.37 105.3 264.17 120.1ZM401.805 214V55H424.005L425.205 95.2L422.805 94.3C424.805 80.7 429.105 70.8 435.705 64.6C442.505 58.2 451.505 55 462.705 55H478.305V79H463.005C455.005 79 448.305 80.5 442.905 83.5C437.705 86.3 433.705 90.6 430.905 96.4C428.305 102 427.005 109.2 427.005 118V214H401.805ZM553.565 217.6C538.765 217.6 525.865 214.2 514.865 207.4C504.065 200.6 495.665 191 489.665 178.6C483.665 166 480.665 151.3 480.665 134.5C480.665 117.7 483.665 103.1 489.665 90.7C495.665 78.3 504.065 68.7 514.865 61.9C525.865 54.9 538.765 51.4 553.565 51.4C565.765 51.4 576.565 53.6 585.965 58C595.565 62.2 603.365 68.4 609.365 76.6C615.365 84.8 619.265 94.8 621.065 106.6L594.665 108.4C592.865 97.8 588.265 89.7 580.865 84.1C573.465 78.3 564.365 75.4 553.565 75.4C538.965 75.4 527.565 80.7 519.365 91.3C511.165 101.7 507.065 116.1 507.065 134.5C507.065 152.9 511.165 167.4 519.365 178C527.565 188.4 538.965 193.6 553.565 193.6C564.365 193.6 573.465 190.6 580.865 184.6C588.265 178.6 592.865 169.6 594.665 157.6L621.065 159.4C619.265 171.2 615.365 181.5 609.365 190.3C603.365 198.9 595.565 205.6 585.965 210.4C576.565 215.2 565.765 217.6 553.565 217.6ZM702.405 217.6C687.405 217.6 674.405 214.2 663.405 207.4C652.605 200.6 644.205 191 638.205 178.6C632.405 166 629.505 151.3 629.505 134.5C629.505 117.7 632.405 103.1 638.205 90.7C644.205 78.3 652.505 68.7 663.105 61.9C673.905 54.9 686.605 51.4 701.205 51.4C715.005 51.4 727.205 54.7 737.805 61.3C748.405 67.7 756.605 77.1 762.405 89.5C768.405 101.9 771.405 117 771.405 134.8V142.3H655.905C656.905 159.3 661.405 172.1 669.405 180.7C677.605 189.3 688.605 193.6 702.405 193.6C712.805 193.6 721.305 191.2 727.905 186.4C734.705 181.4 739.405 174.9 742.005 166.9L769.005 169C764.805 183.2 756.805 194.9 745.005 204.1C733.405 213.1 719.205 217.6 702.405 217.6ZM655.905 120.1H743.805C742.605 104.7 738.105 93.4 730.305 86.2C722.705 79 713.005 75.4 701.205 75.4C689.005 75.4 678.905 79.2 670.905 86.8C663.105 94.2 658.105 105.3 655.905 120.1ZM849.939 217.6C836.139 217.6 824.139 214.2 813.939 207.4C803.939 200.6 796.239 191 790.839 178.6C785.439 166.2 782.739 151.5 782.739 134.5C782.739 117.5 785.439 102.8 790.839 90.4C796.239 78 803.939 68.4 813.939 61.6C824.139 54.8 836.139 51.4 849.939 51.4C860.539 51.4 870.239 53.7 879.039 58.3C887.839 62.7 894.439 69 898.839 77.2V0.999989H924.039V214H901.239L900.339 190C895.939 198.6 889.239 205.4 880.239 210.4C871.239 215.2 861.139 217.6 849.939 217.6ZM855.039 193.6C864.439 193.6 872.339 191.2 878.739 186.4C885.339 181.6 890.339 174.8 893.739 166C897.139 157 898.839 146.5 898.839 134.5C898.839 122.1 897.139 111.5 893.739 102.7C890.339 93.9 885.339 87.2 878.739 82.6C872.339 77.8 864.439 75.4 855.039 75.4C841.039 75.4 829.839 80.7 821.439 91.3C813.239 101.7 809.139 116.1 809.139 134.5C809.139 152.7 813.239 167.1 821.439 177.7C829.839 188.3 841.039 193.6 855.039 193.6ZM1019.13 217.6C1004.13 217.6 991.127 214.2 980.127 207.4C969.327 200.6 960.927 191 954.927 178.6C949.127 166 946.227 151.3 946.227 134.5C946.227 117.7 949.127 103.1 954.927 90.7C960.927 78.3 969.227 68.7 979.827 61.9C990.627 54.9 1003.33 51.4 1017.93 51.4C1031.73 51.4 1043.93 54.7 1054.53 61.3C1065.13 67.7 1073.33 77.1 1079.13 89.5C1085.13 101.9 1088.13 117 1088.13 134.8V142.3H972.627C973.627 159.3 978.127 172.1 986.127 180.7C994.327 189.3 1005.33 193.6 1019.13 193.6C1029.53 193.6 1038.03 191.2 1044.63 186.4C1051.43 181.4 1056.13 174.9 1058.73 166.9L1085.73 169C1081.53 183.2 1073.53 194.9 1061.73 204.1C1050.13 213.1 1035.93 217.6 1019.13 217.6ZM972.627 120.1H1060.53C1059.33 104.7 1054.83 93.4 1047.03 86.2C1039.43 79 1029.73 75.4 1017.93 75.4C1005.73 75.4 995.627 79.2 987.627 86.8C979.827 94.2 974.827 105.3 972.627 120.1ZM1168.16 217.6C1153.96 217.6 1141.86 215.3 1131.86 210.7C1122.06 206.1 1114.36 199.8 1108.76 191.8C1103.36 183.6 1100.26 174.3 1099.46 163.9L1125.86 162.1C1127.46 171.7 1131.56 179.4 1138.16 185.2C1144.76 190.8 1154.76 193.6 1168.16 193.6C1178.96 193.6 1187.56 191.9 1193.96 188.5C1200.56 184.9 1203.86 179.2 1203.86 171.4C1203.86 167.2 1202.86 163.7 1200.86 160.9C1198.86 158.1 1194.96 155.7 1189.16 153.7C1183.36 151.5 1174.76 149.4 1163.36 147.4C1148.16 144.6 1136.16 141.2 1127.36 137.2C1118.76 133 1112.56 127.9 1108.76 121.9C1105.16 115.7 1103.36 108.4 1103.36 100C1103.36 85.8 1108.56 74.2 1118.96 65.2C1129.36 56 1144.16 51.4 1163.36 51.4C1176.36 51.4 1187.26 53.8 1196.06 58.6C1205.06 63.2 1212.06 69.4 1217.06 77.2C1222.26 84.8 1225.66 93.2 1227.26 102.4L1200.86 104.2C1199.66 98.6 1197.46 93.7 1194.26 89.5C1191.06 85.1 1186.86 81.7 1181.66 79.3C1176.46 76.7 1170.26 75.4 1163.06 75.4C1151.66 75.4 1143.26 77.6 1137.86 82C1132.46 86.4 1129.76 92 1129.76 98.8C1129.76 104 1130.96 108.3 1133.36 111.7C1135.96 114.9 1140.06 117.6 1145.66 119.8C1151.26 121.8 1158.76 123.6 1168.16 125.2C1184.36 128 1196.96 131.4 1205.96 135.4C1214.96 139.4 1221.26 144.3 1224.86 150.1C1228.46 155.9 1230.26 163 1230.26 171.4C1230.26 181.2 1227.46 189.6 1221.86 196.6C1216.46 203.4 1209.06 208.6 1199.66 212.2C1190.46 215.8 1179.96 217.6 1168.16 217.6Z" fill="url(#paint0_linear_2313_2095)"/>
<path d="M1 214H1.90735e-06V215H1V214ZM1 55V54H1.90735e-06V55H1ZM24.1 55L25.0998 54.9776L25.0779 54H24.1V55ZM25 95.2L24.6838 96.1487L26.0316 96.5979L25.9998 95.1776L25 95.2ZM21.4 94L20.4203 93.7996L20.2426 94.6683L21.0838 94.9487L21.4 94ZM30.7 71.5L29.888 70.9163L29.8845 70.9212L30.7 71.5ZM47.5 56.8L47.958 57.689L47.9685 57.6835L47.9789 57.6779L47.5 56.8ZM103 62.8L102.338 63.5494L102.346 63.5568L103 62.8ZM119.5 94.6L119.438 95.598L120.687 95.6761L120.487 94.4403L119.5 94.6ZM114.7 94.3L113.715 94.1287L113.524 95.2284L114.638 95.298L114.7 94.3ZM123.4 71.2L122.576 70.6335L122.572 70.6391L123.4 71.2ZM192.4 58.6L191.876 59.4517L191.884 59.4566L191.892 59.4614L192.4 58.6ZM210.1 79L209.186 79.4061L210.1 79ZM216.1 214V215H217.1V214H216.1ZM190.9 214H189.9V215H190.9V214ZM182.5 84.7L181.703 85.3035L181.711 85.3139L182.5 84.7ZM138.1 79L137.559 78.1588L137.552 78.1633L137.545 78.1679L138.1 79ZM125.5 94.6L126.41 95.0138L126.415 95.0036L125.5 94.6ZM121 214V215H122V214H121ZM95.8 214H94.8V215H95.8V214ZM88.3 85.6L89.148 85.07L88.3 85.6ZM43.6 79L43.0592 78.1588L43.0522 78.1633L43.0453 78.1679L43.6 79ZM30.7 94.6L29.7952 94.1742L29.79 94.1852L29.7851 94.1964L30.7 94.6ZM26.2 214V215H27.2V214H26.2ZM1 214H2V55H1H1.90735e-06V214H1ZM1 55V56H24.1V55V54H1V55ZM24.1 55L23.1003 55.0224L24.0003 95.2224L25 95.2L25.9998 95.1776L25.0998 54.9776L24.1 55ZM25 95.2L25.3162 94.2513L21.7162 93.0513L21.4 94L21.0838 94.9487L24.6838 96.1487L25 95.2ZM21.4 94L22.3797 94.2004C24.1569 85.5122 27.2092 78.1467 31.5155 72.0787L30.7 71.5L29.8845 70.9212C25.3908 77.2533 22.2432 84.8878 20.4203 93.7996L21.4 94ZM30.7 71.5L31.512 72.0836C36.0256 65.8038 41.5071 61.0121 47.958 57.689L47.5 56.8L47.042 55.911C40.2929 59.3878 34.5744 64.3961 29.888 70.9164L30.7 71.5ZM47.5 56.8L47.9789 57.6779C54.4225 54.1631 61.5563 52.4 69.4 52.4V51.4V50.4C61.2438 50.4 53.7775 52.2368 47.0211 55.9221L47.5 56.8ZM69.4 51.4V52.4C83.0079 52.4 93.956 56.1422 102.338 63.5493L103 62.8L103.662 62.0507C94.844 54.2578 83.3921 50.4 69.4 50.4V51.4ZM103 62.8L102.346 63.5568C110.937 70.9758 116.343 81.3468 118.513 94.7597L119.5 94.6L120.487 94.4403C118.257 80.6532 112.663 69.8242 103.654 62.0432L103 62.8ZM119.5 94.6L119.562 93.6019L114.762 93.3019L114.7 94.3L114.638 95.298L119.438 95.598L119.5 94.6ZM114.7 94.3L115.685 94.4713C117.267 85.3774 120.124 77.8184 124.228 71.7608L123.4 71.2L122.572 70.6391C118.276 76.9816 115.333 84.8226 113.715 94.1287L114.7 94.3ZM123.4 71.2L124.224 71.7665C128.53 65.5028 134.002 60.7171 140.647 57.3944L140.2 56.5L139.753 55.6056C132.798 59.0829 127.07 64.0972 122.576 70.6335L123.4 71.2ZM140.2 56.5L140.647 57.3944C147.288 54.074 154.931 52.4 163.6 52.4V51.4V50.4C154.669 50.4 146.712 52.126 139.753 55.6056L140.2 56.5ZM163.6 51.4V52.4C174.86 52.4 184.268 54.7698 191.876 59.4517L192.4 58.6L192.924 57.7483C184.932 52.8302 175.14 50.4 163.6 50.4V51.4ZM192.4 58.6L191.892 59.4614C199.497 63.9462 205.263 70.5789 209.186 79.4061L210.1 79L211.014 78.5939C206.937 69.4211 200.903 62.4538 192.908 57.7386L192.4 58.6ZM210.1 79L209.186 79.4061C213.115 88.2461 215.1 98.9998 215.1 111.7H216.1H217.1C217.1 98.8002 215.085 87.7539 211.014 78.5939L210.1 79ZM216.1 111.7H215.1V214H216.1H217.1V111.7H216.1ZM216.1 214V213H190.9V214V215H216.1V214ZM190.9 214H191.9V117.1H190.9H189.9V214H190.9ZM190.9 117.1H191.9C191.9 102.598 189.085 91.5374 183.289 84.0861L182.5 84.7L181.711 85.3139C187.115 92.2626 189.9 102.802 189.9 117.1H190.9ZM182.5 84.7L183.297 84.0965C177.472 76.3989 168.848 72.6 157.6 72.6V73.6V74.6C168.352 74.6 176.328 78.2011 181.703 85.3034L182.5 84.7ZM157.6 73.6V72.6C150.03 72.6 143.338 74.4438 137.559 78.1588L138.1 79L138.641 79.8412C144.062 76.3562 150.37 74.6 157.6 74.6V73.6ZM138.1 79L137.545 78.1679C131.965 81.8882 127.651 87.2481 124.585 94.1964L125.5 94.6L126.415 95.0036C129.35 88.3519 133.435 83.3118 138.655 79.832L138.1 79ZM125.5 94.6L124.59 94.1862C121.515 100.951 120 109.201 120 118.9H121H122C122 109.399 123.485 101.449 126.41 95.0138L125.5 94.6ZM121 118.9H120V214H121H122V118.9H121ZM121 214V213H95.8V214V215H121V214ZM95.8 214H96.8V118.9H95.8H94.8V214H95.8ZM95.8 118.9H96.8C96.8 104.601 94.2855 93.29 89.148 85.07L88.3 85.6L87.452 86.13C92.3145 93.91 94.8 104.799 94.8 118.9H95.8ZM88.3 85.6L89.148 85.07C83.9182 76.7024 75.1456 72.6 63.1 72.6V73.6V74.6C74.6544 74.6 82.6818 78.4976 87.452 86.13L88.3 85.6ZM63.1 73.6V72.6C55.5304 72.6 48.8382 74.4438 43.0592 78.1588L43.6 79L44.1408 79.8412C49.5618 76.3562 55.8696 74.6 63.1 74.6V73.6ZM43.6 79L43.0453 78.1679C37.4712 81.884 33.0603 87.2359 29.7952 94.1742L30.7 94.6L31.6048 95.0258C34.7397 88.3641 38.9288 83.316 44.1547 79.832L43.6 79ZM30.7 94.6L29.7851 94.1964C26.7162 101.152 25.2 109.397 25.2 118.9H26.2H27.2C27.2 109.603 28.6838 101.648 31.6149 95.0036L30.7 94.6ZM26.2 118.9H25.2V214H26.2H27.2V118.9H26.2ZM26.2 214V213H1V214V215H26.2V214ZM271.67 207.4L271.137 208.246L271.145 208.251L271.67 207.4ZM246.47 178.6L245.562 179.018L245.566 179.027L245.57 179.036L246.47 178.6ZM246.47 90.7L245.57 90.2644L245.565 90.2763L246.47 90.7ZM271.37 61.9L271.91 62.7417L271.914 62.7391L271.37 61.9ZM346.07 61.3L345.542 62.149L345.553 62.1561L346.07 61.3ZM370.67 89.5L369.764 89.9237L369.77 89.9356L370.67 89.5ZM379.67 142.3V143.3H380.67V142.3H379.67ZM264.17 142.3V141.3H263.11L263.172 142.359L264.17 142.3ZM277.67 180.7L276.938 181.381L276.947 181.39L277.67 180.7ZM336.17 186.4L336.758 187.209L336.763 187.206L336.17 186.4ZM350.27 166.9L350.348 165.903L349.563 165.842L349.319 166.591L350.27 166.9ZM377.27 169L378.229 169.284L378.58 168.099L377.348 168.003L377.27 169ZM353.27 204.1L353.883 204.89L353.885 204.889L353.27 204.1ZM264.17 120.1L263.181 119.953L263.011 121.1H264.17V120.1ZM352.07 120.1V121.1H353.151L353.067 120.022L352.07 120.1ZM338.57 86.2L337.883 86.926L337.892 86.9348L338.57 86.2ZM279.17 86.8L279.859 87.5255L279.859 87.525L279.17 86.8ZM310.67 217.6V216.6C295.826 216.6 283.014 213.237 272.196 206.549L271.67 207.4L271.145 208.251C282.326 215.163 295.515 218.6 310.67 218.6V217.6ZM271.67 207.4L272.203 206.554C261.574 199.861 253.296 190.41 247.37 178.164L246.47 178.6L245.57 179.036C251.645 191.59 260.166 201.339 271.138 208.246L271.67 207.4ZM246.47 178.6L247.379 178.182C241.65 165.738 238.77 151.186 238.77 134.5H237.77H236.77C236.77 151.414 239.69 166.262 245.562 179.018L246.47 178.6ZM237.77 134.5H238.77C238.77 117.814 241.651 103.364 247.376 91.1237L246.47 90.7L245.565 90.2763C239.69 102.836 236.77 117.586 236.77 134.5H237.77ZM246.47 90.7L247.37 91.1356C253.298 78.8854 261.48 69.4329 271.91 62.7417L271.37 61.9L270.83 61.0583C260.061 67.9671 251.643 77.7145 245.57 90.2644L246.47 90.7ZM271.37 61.9L271.914 62.7391C282.531 55.8578 295.037 52.4 309.47 52.4V51.4V50.4C294.704 50.4 281.809 53.9422 270.826 61.0608L271.37 61.9ZM309.47 51.4V52.4C323.104 52.4 335.117 55.6578 345.542 62.1489L346.07 61.3L346.599 60.4511C335.824 53.7421 323.437 50.4 309.47 50.4V51.4ZM346.07 61.3L345.553 62.1561C355.966 68.4429 364.039 77.6834 369.764 89.9237L370.67 89.5L371.576 89.0763C365.701 76.5165 357.375 66.957 346.587 60.4439L346.07 61.3ZM370.67 89.5L369.77 89.9356C375.688 102.166 378.67 117.108 378.67 134.8H379.67H380.67C380.67 116.892 377.652 101.634 371.57 89.0644L370.67 89.5ZM379.67 134.8H378.67V142.3H379.67H380.67V134.8H379.67ZM379.67 142.3V141.3H264.17V142.3V143.3H379.67V142.3ZM264.17 142.3L263.172 142.359C264.18 159.489 268.722 172.549 276.938 181.381L277.67 180.7L278.402 180.019C270.619 171.651 266.161 159.111 265.169 142.241L264.17 142.3ZM277.67 180.7L276.947 181.39C285.366 190.22 296.645 194.6 310.67 194.6V193.6V192.6C297.096 192.6 286.375 188.38 278.394 180.01L277.67 180.7ZM310.67 193.6V194.6C321.223 194.6 329.946 192.163 336.758 187.209L336.17 186.4L335.582 185.591C329.195 190.237 320.917 192.6 310.67 192.6V193.6ZM336.17 186.4L336.763 187.206C343.731 182.082 348.556 175.409 351.221 167.209L350.27 166.9L349.319 166.591C346.784 174.391 342.21 180.718 335.578 185.594L336.17 186.4ZM350.27 166.9L350.193 167.897L377.193 169.997L377.27 169L377.348 168.003L350.348 165.903L350.27 166.9ZM377.27 169L376.311 168.716C372.171 182.714 364.293 194.238 352.655 203.311L353.27 204.1L353.885 204.889C365.848 195.562 373.969 183.686 378.229 169.284L377.27 169ZM353.27 204.1L352.657 203.31C341.257 212.155 327.282 216.6 310.67 216.6V217.6V218.6C327.659 218.6 342.083 214.045 353.883 204.89L353.27 204.1ZM264.17 120.1V121.1H352.07V120.1V119.1H264.17V120.1ZM352.07 120.1L353.067 120.022C351.857 104.484 347.303 92.9002 339.249 85.4652L338.57 86.2L337.892 86.9348C345.438 93.8998 349.884 104.916 351.073 120.178L352.07 120.1ZM338.57 86.2L339.258 85.474C331.448 78.0753 321.491 74.4 309.47 74.4V75.4V76.4C321.05 76.4 330.492 79.9247 337.883 86.9259L338.57 86.2ZM309.47 75.4V74.4C297.043 74.4 286.688 78.2791 278.482 86.075L279.17 86.8L279.859 87.525C287.653 80.1209 297.497 76.4 309.47 76.4V75.4ZM279.17 86.8L278.482 86.0745C270.467 93.6786 265.401 105.017 263.181 119.953L264.17 120.1L265.159 120.247C267.339 105.583 272.274 94.7214 279.859 87.5255L279.17 86.8ZM401.805 214H400.805V215H401.805V214ZM401.805 55V54H400.805V55H401.805ZM424.005 55L425.004 54.9702L424.975 54H424.005V55ZM425.205 95.2L424.854 96.1363L426.249 96.6595L426.204 95.1702L425.205 95.2ZM422.805 94.3L421.815 94.1545L421.698 94.953L422.454 95.2363L422.805 94.3ZM435.705 64.6L436.389 65.3288L436.39 65.3282L435.705 64.6ZM478.305 55H479.305V54H478.305V55ZM478.305 79V80H479.305V79H478.305ZM442.905 83.5L443.379 84.3805L443.39 84.3741L442.905 83.5ZM430.905 96.4L430.004 95.9652L430.001 95.972L429.998 95.9789L430.905 96.4ZM427.005 214V215H428.005V214H427.005ZM401.805 214H402.805V55H401.805H400.805V214H401.805ZM401.805 55V56H424.005V55V54H401.805V55ZM424.005 55L423.005 55.0298L424.205 95.2298L425.205 95.2L426.204 95.1702L425.004 54.9702L424.005 55ZM425.205 95.2L425.556 94.2637L423.156 93.3637L422.805 94.3L422.454 95.2363L424.854 96.1363L425.205 95.2ZM422.805 94.3L423.794 94.4455C425.777 80.9586 430.02 71.3123 436.389 65.3288L435.705 64.6L435.02 63.8711C428.19 70.2877 423.832 80.4414 421.815 94.1545L422.805 94.3ZM435.705 64.6L436.39 65.3282C442.969 59.1365 451.706 56 462.705 56V55V54C451.304 54 442.041 57.2635 435.019 63.8718L435.705 64.6ZM462.705 55V56H478.305V55V54H462.705V55ZM478.305 55H477.305V79H478.305H479.305V55H478.305ZM478.305 79V78H463.005V79V80H478.305V79ZM463.005 79V78C454.884 78 448.005 79.5225 442.419 82.6258L442.905 83.5L443.39 84.3741C448.604 81.4775 455.126 80 463.005 80V79ZM442.905 83.5L442.431 82.6195C437.028 85.5286 432.887 89.9935 430.004 95.9652L430.905 96.4L431.805 96.8347C434.522 91.2064 438.381 87.0714 443.379 84.3805L442.905 83.5ZM430.905 96.4L429.998 95.9789C427.316 101.755 426.005 109.112 426.005 118H427.005H428.005C428.005 109.288 429.293 102.245 431.812 96.8211L430.905 96.4ZM427.005 118H426.005V214H427.005H428.005V118H427.005ZM427.005 214V213H401.805V214V215H427.005V214ZM514.865 207.4L514.332 208.246L514.339 208.251L514.865 207.4ZM489.665 178.6L488.762 179.03L488.765 179.036L489.665 178.6ZM489.665 90.7L488.765 90.2644L489.665 90.7ZM514.865 61.9L515.398 62.7462L515.402 62.7437L514.865 61.9ZM585.965 58L585.541 58.9057L585.552 58.9111L585.564 58.9161L585.965 58ZM609.365 76.6L610.172 76.0095L609.365 76.6ZM621.065 106.6L621.133 107.598L622.217 107.524L622.053 106.449L621.065 106.6ZM594.665 108.4L593.679 108.567L593.83 109.459L594.733 109.398L594.665 108.4ZM580.865 84.1L580.248 84.887L580.255 84.8923L580.261 84.8974L580.865 84.1ZM519.365 91.3L520.15 91.9192L520.156 91.9119L519.365 91.3ZM519.365 178L518.574 178.612L518.58 178.619L519.365 178ZM594.665 157.6L594.733 156.602L593.813 156.54L593.676 157.452L594.665 157.6ZM621.065 159.4L622.053 159.551L622.217 158.476L621.133 158.402L621.065 159.4ZM609.365 190.3L610.185 190.872L610.191 190.863L609.365 190.3ZM585.965 210.4L585.518 209.506L585.51 209.509L585.965 210.4ZM553.565 217.6V216.6C538.923 216.6 526.211 213.238 515.391 206.549L514.865 207.4L514.339 208.251C525.519 215.162 538.607 218.6 553.565 218.6V217.6ZM514.865 207.4L515.398 206.554C504.769 199.861 496.49 190.41 490.565 178.164L489.665 178.6L488.765 179.036C494.84 191.59 503.361 201.339 514.332 208.246L514.865 207.4ZM489.665 178.6L490.568 178.17C484.643 165.729 481.665 151.181 481.665 134.5H480.665H479.665C479.665 151.419 482.686 166.271 488.762 179.03L489.665 178.6ZM480.665 134.5H481.665C481.665 117.818 484.644 103.373 490.565 91.1356L489.665 90.7L488.765 90.2644C482.686 102.827 479.665 117.582 479.665 134.5H480.665ZM489.665 90.7L490.565 91.1356C496.49 78.8902 504.769 69.4385 515.398 62.7462L514.865 61.9L514.332 61.0538C503.361 67.9615 494.84 77.7098 488.765 90.2644L489.665 90.7ZM514.865 61.9L515.402 62.7437C526.22 55.8591 538.929 52.4 553.565 52.4V51.4V50.4C538.601 50.4 525.509 53.9409 514.328 61.0563L514.865 61.9ZM553.565 51.4V52.4C565.644 52.4 576.295 54.5778 585.541 58.9057L585.965 58L586.389 57.0943C576.835 52.6222 565.886 50.4 553.565 50.4V51.4ZM585.965 58L585.564 58.9161C595.008 63.0477 602.665 69.1376 608.558 77.1905L609.365 76.6L610.172 76.0095C604.064 67.6624 596.122 61.3523 586.366 57.0838L585.965 58ZM609.365 76.6L608.558 77.1905C614.448 85.2397 618.296 95.0821 620.076 106.751L621.065 106.6L622.053 106.449C620.233 94.5179 616.282 84.3602 610.172 76.0095L609.365 76.6ZM621.065 106.6L620.997 105.602L594.597 107.402L594.665 108.4L594.733 109.398L621.133 107.598L621.065 106.6ZM594.665 108.4L595.651 108.233C593.815 97.4242 589.103 89.0805 581.468 83.3026L580.865 84.1L580.261 84.8974C587.426 90.3195 591.914 98.1758 593.679 108.567L594.665 108.4ZM580.865 84.1L581.482 83.3129C573.88 77.3549 564.554 74.4 553.565 74.4V75.4V76.4C564.176 76.4 573.05 79.2451 580.248 84.887L580.865 84.1ZM553.565 75.4V74.4C538.687 74.4 526.982 79.8192 518.574 90.6881L519.365 91.3L520.156 91.9119C528.148 81.5808 539.242 76.4 553.565 76.4V75.4ZM519.365 91.3L518.58 90.6808C510.195 101.315 506.065 115.961 506.065 134.5H507.065H508.065C508.065 116.239 512.134 102.085 520.15 91.9192L519.365 91.3ZM507.065 134.5H506.065C506.065 153.04 510.196 167.782 518.574 178.612L519.365 178L520.156 177.388C512.134 167.018 508.065 152.76 508.065 134.5H507.065ZM519.365 178L518.58 178.619C526.99 189.286 538.694 194.6 553.565 194.6V193.6V192.6C539.235 192.6 528.139 187.514 520.15 177.381L519.365 178ZM553.565 193.6V194.6C564.562 194.6 573.893 191.54 581.495 185.377L580.865 184.6L580.235 183.823C573.037 189.66 564.168 192.6 553.565 192.6V193.6ZM580.865 184.6L581.495 185.377C589.137 179.18 593.827 169.925 595.654 157.748L594.665 157.6L593.676 157.452C591.902 169.275 587.392 178.02 580.235 183.823L580.865 184.6ZM594.665 157.6L594.597 158.598L620.997 160.398L621.065 159.4L621.133 158.402L594.733 156.602L594.665 157.6ZM621.065 159.4L620.076 159.249C618.296 170.919 614.445 181.074 608.539 189.737L609.365 190.3L610.191 190.863C616.285 181.926 620.234 171.481 622.053 159.551L621.065 159.4ZM609.365 190.3L608.545 189.728C602.643 198.188 594.972 204.778 585.518 209.506L585.965 210.4L586.412 211.294C596.158 206.422 604.087 199.612 610.185 190.872L609.365 190.3ZM585.965 210.4L585.51 209.509C576.271 214.227 565.631 216.6 553.565 216.6V217.6V218.6C565.898 218.6 576.858 216.173 586.42 211.291L585.965 210.4ZM663.405 207.4L662.872 208.246L662.879 208.251L663.405 207.4ZM638.205 178.6L637.296 179.018L637.3 179.027L637.305 179.036L638.205 178.6ZM638.205 90.7L637.304 90.2644L637.299 90.2763L638.205 90.7ZM663.105 61.9L663.645 62.7417L663.649 62.7391L663.105 61.9ZM737.805 61.3L737.276 62.149L737.288 62.1561L737.805 61.3ZM762.405 89.5L761.499 89.9237L761.505 89.9356L762.405 89.5ZM771.405 142.3V143.3H772.405V142.3H771.405ZM655.905 142.3V141.3H654.844L654.906 142.359L655.905 142.3ZM669.405 180.7L668.672 181.381L668.681 181.39L669.405 180.7ZM727.905 186.4L728.493 187.209L728.497 187.206L727.905 186.4ZM742.005 166.9L742.082 165.903L741.297 165.842L741.054 166.591L742.005 166.9ZM769.005 169L769.964 169.284L770.314 168.099L769.082 168.003L769.005 169ZM745.005 204.1L745.618 204.89L745.62 204.889L745.005 204.1ZM655.905 120.1L654.916 119.953L654.745 121.1H655.905V120.1ZM743.805 120.1V121.1H744.886L744.802 120.022L743.805 120.1ZM730.305 86.2L729.617 86.926L729.626 86.9348L730.305 86.2ZM670.905 86.8L671.593 87.5255L671.593 87.525L670.905 86.8ZM702.405 217.6V216.6C687.56 216.6 674.749 213.237 663.93 206.549L663.405 207.4L662.879 208.251C674.061 215.163 687.249 218.6 702.405 218.6V217.6ZM663.405 207.4L663.938 206.554C653.309 199.861 645.03 190.41 639.105 178.164L638.205 178.6L637.305 179.036C643.379 191.59 651.901 201.339 662.872 208.246L663.405 207.4ZM638.205 178.6L639.113 178.182C633.385 165.738 630.505 151.186 630.505 134.5H629.505H628.505C628.505 151.414 631.425 166.262 637.296 179.018L638.205 178.6ZM629.505 134.5H630.505C630.505 117.814 633.385 103.364 639.11 91.1237L638.205 90.7L637.299 90.2763C631.424 102.836 628.505 117.586 628.505 134.5H629.505ZM638.205 90.7L639.105 91.1356C645.032 78.8854 653.214 69.4329 663.645 62.7417L663.105 61.9L662.565 61.0583C651.795 67.9671 643.377 77.7145 637.305 90.2644L638.205 90.7ZM663.105 61.9L663.649 62.7391C674.266 55.8578 686.771 52.4 701.205 52.4V51.4V50.4C686.438 50.4 673.544 53.9422 662.561 61.0608L663.105 61.9ZM701.205 51.4V52.4C714.838 52.4 726.851 55.6578 737.276 62.1489L737.805 61.3L738.333 60.4511C727.558 53.7421 715.171 50.4 701.205 50.4V51.4ZM737.805 61.3L737.288 62.1561C747.701 68.4429 755.774 77.6834 761.499 89.9237L762.405 89.5L763.31 89.0763C757.436 76.5165 749.109 66.957 738.322 60.4439L737.805 61.3ZM762.405 89.5L761.505 89.9356C767.423 102.166 770.405 117.108 770.405 134.8H771.405H772.405C772.405 116.892 769.387 101.634 763.305 89.0644L762.405 89.5ZM771.405 134.8H770.405V142.3H771.405H772.405V134.8H771.405ZM771.405 142.3V141.3H655.905V142.3V143.3H771.405V142.3ZM655.905 142.3L654.906 142.359C655.914 159.489 660.456 172.549 668.672 181.381L669.405 180.7L670.137 180.019C662.353 171.651 657.895 159.111 656.903 142.241L655.905 142.3ZM669.405 180.7L668.681 181.39C677.1 190.22 688.379 194.6 702.405 194.6V193.6V192.6C688.83 192.6 678.109 188.38 670.128 180.01L669.405 180.7ZM702.405 193.6V194.6C712.958 194.6 721.68 192.163 728.493 187.209L727.905 186.4L727.317 185.591C720.929 190.237 712.652 192.6 702.405 192.6V193.6ZM727.905 186.4L728.497 187.206C735.465 182.082 740.291 175.409 742.956 167.209L742.005 166.9L741.054 166.591C738.519 174.391 733.944 180.718 727.312 185.594L727.905 186.4ZM742.005 166.9L741.927 167.897L768.927 169.997L769.005 169L769.082 168.003L742.082 165.903L742.005 166.9ZM769.005 169L768.046 168.716C763.906 182.714 756.027 194.238 744.39 203.311L745.005 204.1L745.62 204.889C757.582 195.562 765.704 183.686 769.964 169.284L769.005 169ZM745.005 204.1L744.392 203.31C732.992 212.155 719.016 216.6 702.405 216.6V217.6V218.6C719.393 218.6 733.818 214.045 745.618 204.89L745.005 204.1ZM655.905 120.1V121.1H743.805V120.1V119.1H655.905V120.1ZM743.805 120.1L744.802 120.022C743.591 104.484 739.038 92.9002 730.983 85.4652L730.305 86.2L729.626 86.9348C737.172 93.8998 741.618 104.916 742.808 120.178L743.805 120.1ZM730.305 86.2L730.992 85.474C723.183 78.0753 713.225 74.4 701.205 74.4V75.4V76.4C712.784 76.4 722.227 79.9247 729.617 86.9259L730.305 86.2ZM701.205 75.4V74.4C688.778 74.4 678.422 78.2791 670.216 86.075L670.905 86.8L671.593 87.525C679.387 80.1209 689.232 76.4 701.205 76.4V75.4ZM670.905 86.8L670.216 86.0745C662.201 93.6786 657.136 105.017 654.916 119.953L655.905 120.1L656.894 120.247C659.074 105.583 664.008 94.7214 671.593 87.5255L670.905 86.8ZM813.939 207.4L813.377 208.227L813.384 208.232L813.939 207.4ZM790.839 178.6L789.922 178.999L790.839 178.6ZM790.839 90.4L789.922 90.0007L790.839 90.4ZM813.939 61.6L813.384 60.7679L813.377 60.7731L813.939 61.6ZM879.039 58.3L878.576 59.1862L878.584 59.1904L878.592 59.1944L879.039 58.3ZM898.839 77.2L897.958 77.6728L899.839 77.2H898.839ZM898.839 0.999989V-1.14441e-05H897.839V0.999989H898.839ZM924.039 0.999989H925.039V-1.14441e-05H924.039V0.999989ZM924.039 214V215H925.039V214H924.039ZM901.239 214L900.24 214.037L900.276 215H901.239V214ZM900.339 190L901.338 189.963L901.195 186.132L899.449 189.545L900.339 190ZM880.239 210.4L880.71 211.282L880.717 211.278L880.725 211.274L880.239 210.4ZM878.739 186.4L878.151 185.591L878.145 185.596L878.139 185.6L878.739 186.4ZM893.739 166L894.672 166.36L894.675 166.353L893.739 166ZM893.739 102.7L894.672 102.34L893.739 102.7ZM878.739 82.6L878.139 83.4L878.153 83.4104L878.167 83.4204L878.739 82.6ZM821.439 91.3L820.655 90.6789L820.654 90.6808L821.439 91.3ZM821.439 177.7L820.648 178.312L820.655 178.321L821.439 177.7ZM849.939 217.6V216.6C836.311 216.6 824.509 213.245 814.494 206.568L813.939 207.4L813.384 208.232C823.769 215.155 835.967 218.6 849.939 218.6V217.6ZM813.939 207.4L814.501 206.573C804.676 199.892 797.09 190.449 791.756 178.201L790.839 178.6L789.922 178.999C795.388 191.551 803.203 201.308 813.377 208.227L813.939 207.4ZM790.839 178.6L791.756 178.201C786.423 165.955 783.739 151.397 783.739 134.5H782.739H781.739C781.739 151.603 784.455 166.445 789.922 178.999L790.839 178.6ZM782.739 134.5H783.739C783.739 117.603 786.423 103.045 791.756 90.7993L790.839 90.4L789.922 90.0007C784.455 102.555 781.739 117.397 781.739 134.5H782.739ZM790.839 90.4L791.756 90.7993C797.09 78.5513 804.676 69.1085 814.501 62.4269L813.939 61.6L813.377 60.7731C803.203 67.6915 795.388 77.4487 789.922 90.0007L790.839 90.4ZM813.939 61.6L814.494 62.432C824.509 55.755 836.311 52.4 849.939 52.4V51.4V50.4C835.967 50.4 823.769 53.845 813.384 60.7679L813.939 61.6ZM849.939 51.4V52.4C860.389 52.4 869.928 54.666 878.576 59.1862L879.039 58.3L879.502 57.4138C870.55 52.734 860.689 50.4 849.939 50.4V51.4ZM879.039 58.3L878.592 59.1944C887.218 63.5077 893.661 69.6655 897.958 77.6728L898.839 77.2L899.72 76.7272C895.217 68.3345 888.46 61.8923 879.486 57.4056L879.039 58.3ZM898.839 77.2H899.839V0.999989H898.839H897.839V77.2H898.839ZM898.839 0.999989V1.99999H924.039V0.999989V-1.14441e-05H898.839V0.999989ZM924.039 0.999989H923.039V214H924.039H925.039V0.999989H924.039ZM924.039 214V213H901.239V214V215H924.039V214ZM901.239 214L902.238 213.963L901.338 189.963L900.339 190L899.34 190.037L900.24 214.037L901.239 214ZM900.339 190L899.449 189.545C895.145 197.956 888.592 204.616 879.753 209.526L880.239 210.4L880.725 211.274C889.886 206.184 896.733 199.244 901.229 190.455L900.339 190ZM880.239 210.4L879.768 209.518C870.927 214.233 860.991 216.6 849.939 216.6V217.6V218.6C861.287 218.6 871.551 216.167 880.71 211.282L880.239 210.4ZM855.039 193.6V194.6C864.616 194.6 872.737 192.152 879.339 187.2L878.739 186.4L878.139 185.6C871.941 190.248 864.262 192.6 855.039 192.6V193.6ZM878.739 186.4L879.327 187.209C886.106 182.279 891.214 175.311 894.672 166.36L893.739 166L892.806 165.64C889.465 174.289 884.572 180.921 878.151 185.591L878.739 186.4ZM893.739 166L894.675 166.353C898.126 157.216 899.839 146.592 899.839 134.5H898.839H897.839C897.839 146.408 896.152 156.784 892.804 165.647L893.739 166ZM898.839 134.5H899.839C899.839 122.013 898.128 111.284 894.672 102.34L893.739 102.7L892.806 103.06C896.15 111.716 897.839 122.187 897.839 134.5H898.839ZM893.739 102.7L894.672 102.34C891.213 93.3866 886.101 86.5121 879.311 81.7796L878.739 82.6L878.167 83.4204C884.577 87.8879 889.465 94.4134 892.806 103.06L893.739 102.7ZM878.739 82.6L879.339 81.8C872.737 76.8485 864.616 74.4 855.039 74.4V75.4V76.4C864.262 76.4 871.941 78.7515 878.139 83.4L878.739 82.6ZM855.039 75.4V74.4C840.746 74.4 829.253 79.8299 820.655 90.6789L821.439 91.3L822.223 91.9211C830.426 81.57 841.332 76.4 855.039 76.4V75.4ZM821.439 91.3L820.654 90.6808C812.269 101.315 808.139 115.961 808.139 134.5H809.139H810.139C810.139 116.239 814.209 102.085 822.224 91.9192L821.439 91.3ZM809.139 134.5H808.139C808.139 152.843 812.271 167.483 820.648 178.312L821.439 177.7L822.23 177.088C814.207 166.717 810.139 152.557 810.139 134.5H809.139ZM821.439 177.7L820.655 178.321C829.253 189.17 840.746 194.6 855.039 194.6V193.6V192.6C841.332 192.6 830.426 187.43 822.223 177.079L821.439 177.7ZM980.127 207.4L979.595 208.246L979.602 208.251L980.127 207.4ZM954.927 178.6L954.019 179.018L954.023 179.027L954.027 179.036L954.927 178.6ZM954.927 90.7L954.027 90.2644L954.022 90.2763L954.927 90.7ZM979.827 61.9L980.367 62.7417L980.371 62.7391L979.827 61.9ZM1054.53 61.3L1054 62.149L1054.01 62.1561L1054.53 61.3ZM1079.13 89.5L1078.22 89.9237L1078.23 89.9356L1079.13 89.5ZM1088.13 142.3V143.3H1089.13V142.3H1088.13ZM972.627 142.3V141.3H971.567L971.629 142.359L972.627 142.3ZM986.127 180.7L985.395 181.381L985.404 181.39L986.127 180.7ZM1044.63 186.4L1045.22 187.209L1045.22 187.206L1044.63 186.4ZM1058.73 166.9L1058.8 165.903L1058.02 165.842L1057.78 166.591L1058.73 166.9ZM1085.73 169L1086.69 169.284L1087.04 168.099L1085.8 168.003L1085.73 169ZM1061.73 204.1L1062.34 204.89L1062.34 204.889L1061.73 204.1ZM972.627 120.1L971.638 119.953L971.468 121.1H972.627V120.1ZM1060.53 120.1V121.1H1061.61L1061.52 120.022L1060.53 120.1ZM1047.03 86.2L1046.34 86.926L1046.35 86.9348L1047.03 86.2ZM987.627 86.8L988.316 87.5255L988.316 87.525L987.627 86.8ZM1019.13 217.6V216.6C1004.28 216.6 991.471 213.237 980.653 206.549L980.127 207.4L979.602 208.251C990.783 215.163 1003.97 218.6 1019.13 218.6V217.6ZM980.127 207.4L980.66 206.554C970.031 199.861 961.753 190.41 955.828 178.164L954.927 178.6L954.027 179.036C960.102 191.59 968.623 201.339 979.595 208.246L980.127 207.4ZM954.927 178.6L955.836 178.182C950.107 165.738 947.227 151.186 947.227 134.5H946.227H945.227C945.227 151.414 948.147 166.262 954.019 179.018L954.927 178.6ZM946.227 134.5H947.227C947.227 117.814 950.108 103.364 955.833 91.1237L954.927 90.7L954.022 90.2763C948.147 102.836 945.227 117.586 945.227 134.5H946.227ZM954.927 90.7L955.828 91.1356C961.755 78.8854 969.937 69.4329 980.367 62.7417L979.827 61.9L979.287 61.0583C968.518 67.9671 960.1 77.7145 954.027 90.2644L954.927 90.7ZM979.827 61.9L980.371 62.7391C990.988 55.8578 1003.49 52.4 1017.93 52.4V51.4V50.4C1003.16 50.4 990.266 53.9422 979.283 61.0608L979.827 61.9ZM1017.93 51.4V52.4C1031.56 52.4 1043.57 55.6578 1054 62.1489L1054.53 61.3L1055.06 60.4511C1044.28 53.7421 1031.89 50.4 1017.93 50.4V51.4ZM1054.53 61.3L1054.01 62.1561C1064.42 68.4429 1072.5 77.6834 1078.22 89.9237L1079.13 89.5L1080.03 89.0763C1074.16 76.5165 1065.83 66.957 1055.04 60.4439L1054.53 61.3ZM1079.13 89.5L1078.23 89.9356C1084.15 102.166 1087.13 117.108 1087.13 134.8H1088.13H1089.13C1089.13 116.892 1086.11 101.634 1080.03 89.0644L1079.13 89.5ZM1088.13 134.8H1087.13V142.3H1088.13H1089.13V134.8H1088.13ZM1088.13 142.3V141.3H972.627V142.3V143.3H1088.13V142.3ZM972.627 142.3L971.629 142.359C972.637 159.489 977.179 172.549 985.395 181.381L986.127 180.7L986.86 180.019C979.076 171.651 974.618 159.111 973.626 142.241L972.627 142.3ZM986.127 180.7L985.404 181.39C993.823 190.22 1005.1 194.6 1019.13 194.6V193.6V192.6C1005.55 192.6 994.832 188.38 986.851 180.01L986.127 180.7ZM1019.13 193.6V194.6C1029.68 194.6 1038.4 192.163 1045.22 187.209L1044.63 186.4L1044.04 185.591C1037.65 190.237 1029.37 192.6 1019.13 192.6V193.6ZM1044.63 186.4L1045.22 187.206C1052.19 182.082 1057.01 175.409 1059.68 167.209L1058.73 166.9L1057.78 166.591C1055.24 174.391 1050.67 180.718 1044.03 185.594L1044.63 186.4ZM1058.73 166.9L1058.65 167.897L1085.65 169.997L1085.73 169L1085.8 168.003L1058.8 165.903L1058.73 166.9ZM1085.73 169L1084.77 168.716C1080.63 182.714 1072.75 194.238 1061.11 203.311L1061.73 204.1L1062.34 204.889C1074.3 195.562 1082.43 183.686 1086.69 169.284L1085.73 169ZM1061.73 204.1L1061.11 203.31C1049.71 212.155 1035.74 216.6 1019.13 216.6V217.6V218.6C1036.12 218.6 1050.54 214.045 1062.34 204.89L1061.73 204.1ZM972.627 120.1V121.1H1060.53V120.1V119.1H972.627V120.1ZM1060.53 120.1L1061.52 120.022C1060.31 104.484 1055.76 92.9002 1047.71 85.4652L1047.03 86.2L1046.35 86.9348C1053.89 93.8998 1058.34 104.916 1059.53 120.178L1060.53 120.1ZM1047.03 86.2L1047.72 85.474C1039.91 78.0753 1029.95 74.4 1017.93 74.4V75.4V76.4C1029.51 76.4 1038.95 79.9247 1046.34 86.9259L1047.03 86.2ZM1017.93 75.4V74.4C1005.5 74.4 995.145 78.2791 986.939 86.075L987.627 86.8L988.316 87.525C996.11 80.1209 1005.95 76.4 1017.93 76.4V75.4ZM987.627 86.8L986.939 86.0745C978.924 93.6786 973.858 105.017 971.638 119.953L972.627 120.1L973.616 120.247C975.796 105.583 980.731 94.7214 988.316 87.5255L987.627 86.8ZM1131.86 210.7L1131.44 211.605L1131.44 211.608L1131.86 210.7ZM1108.76 191.8L1107.93 192.35L1107.93 192.362L1107.94 192.373L1108.76 191.8ZM1099.46 163.9L1099.39 162.902L1098.39 162.971L1098.46 163.977L1099.46 163.9ZM1125.86 162.1L1126.85 161.936L1126.7 161.041L1125.79 161.102L1125.86 162.1ZM1138.16 185.2L1137.5 185.951L1137.51 185.957L1137.51 185.963L1138.16 185.2ZM1193.96 188.5L1194.43 189.383L1194.44 189.378L1193.96 188.5ZM1200.86 160.9L1201.68 160.319L1200.86 160.9ZM1189.16 153.7L1188.81 154.635L1188.82 154.64L1188.84 154.645L1189.16 153.7ZM1163.36 147.4L1163.18 148.383L1163.19 148.385L1163.36 147.4ZM1127.36 137.2L1126.92 138.099L1126.94 138.105L1126.95 138.11L1127.36 137.2ZM1108.76 121.9L1107.9 122.402L1107.91 122.419L1107.92 122.435L1108.76 121.9ZM1118.96 65.2L1119.62 65.9562L1119.62 65.949L1118.96 65.2ZM1196.06 58.6L1195.58 59.4779L1195.59 59.4843L1195.61 59.4904L1196.06 58.6ZM1217.06 77.2L1216.22 77.7397L1216.23 77.7523L1216.24 77.7647L1217.06 77.2ZM1227.26 102.4L1227.33 103.398L1228.44 103.322L1228.25 102.229L1227.26 102.4ZM1200.86 104.2L1199.88 104.41L1200.07 105.257L1200.93 105.198L1200.86 104.2ZM1194.26 89.5L1193.45 90.0882L1193.46 90.0972L1193.47 90.106L1194.26 89.5ZM1181.66 79.3L1181.21 80.1944L1181.23 80.2014L1181.24 80.2079L1181.66 79.3ZM1137.86 82L1137.23 81.2248L1137.86 82ZM1133.36 111.7L1132.54 112.277L1132.56 112.304L1132.59 112.331L1133.36 111.7ZM1145.66 119.8L1145.3 120.731L1145.31 120.736L1145.33 120.742L1145.66 119.8ZM1168.16 125.2L1168.33 124.215L1168.33 124.214L1168.16 125.2ZM1205.96 135.4L1206.37 134.486L1205.96 135.4ZM1224.86 150.1L1224.01 150.627L1224.86 150.1ZM1221.86 196.6L1221.08 195.975L1221.08 195.978L1221.86 196.6ZM1199.66 212.2L1199.3 211.266L1199.3 211.269L1199.66 212.2ZM1168.16 217.6V216.6C1154.07 216.6 1142.12 214.316 1132.28 209.792L1131.86 210.7L1131.44 211.608C1141.61 216.284 1153.86 218.6 1168.16 218.6V217.6ZM1131.86 210.7L1132.29 209.795C1122.63 205.261 1115.07 199.068 1109.58 191.227L1108.76 191.8L1107.94 192.373C1113.65 200.532 1121.5 206.939 1131.44 211.605L1131.86 210.7ZM1108.76 191.8L1109.6 191.25C1104.3 183.2 1101.25 174.065 1100.46 163.823L1099.46 163.9L1098.46 163.977C1099.28 174.535 1102.43 184 1107.93 192.35L1108.76 191.8ZM1099.46 163.9L1099.53 164.898L1125.93 163.098L1125.86 162.1L1125.79 161.102L1099.39 162.902L1099.46 163.9ZM1125.86 162.1L1124.88 162.264C1126.51 172.066 1130.71 179.982 1137.5 185.951L1138.16 185.2L1138.82 184.449C1132.41 178.818 1128.41 171.334 1126.85 161.936L1125.86 162.1ZM1138.16 185.2L1137.51 185.963C1144.37 191.78 1154.65 194.6 1168.16 194.6V193.6V192.6C1154.87 192.6 1145.15 189.82 1138.81 184.437L1138.16 185.2ZM1168.16 193.6V194.6C1179.05 194.6 1187.83 192.888 1194.43 189.383L1193.96 188.5L1193.49 187.617C1187.29 190.912 1178.87 192.6 1168.16 192.6V193.6ZM1193.96 188.5L1194.44 189.378C1197.88 187.503 1200.5 185.056 1202.25 182.026C1204.01 178.998 1204.86 175.443 1204.86 171.4H1203.86H1202.86C1202.86 175.157 1202.07 178.352 1200.52 181.024C1198.98 183.694 1196.65 185.897 1193.48 187.622L1193.96 188.5ZM1203.86 171.4H1204.86C1204.86 167.038 1203.82 163.323 1201.68 160.319L1200.86 160.9L1200.05 161.481C1201.9 164.077 1202.86 167.362 1202.86 171.4H1203.86ZM1200.86 160.9L1201.68 160.319C1199.49 157.262 1195.35 154.776 1189.49 152.755L1189.16 153.7L1188.84 154.645C1194.57 156.624 1198.23 158.938 1200.05 161.481L1200.86 160.9ZM1189.16 153.7L1189.52 152.765C1183.63 150.531 1174.95 148.418 1163.53 146.415L1163.36 147.4L1163.19 148.385C1174.57 150.382 1183.1 152.469 1188.81 154.635L1189.16 153.7ZM1163.36 147.4L1163.54 146.417C1148.38 143.624 1136.47 140.242 1127.78 136.29L1127.36 137.2L1126.95 138.11C1135.85 142.158 1147.94 145.576 1163.18 148.383L1163.36 147.4ZM1127.36 137.2L1127.8 136.301C1119.31 132.155 1113.28 127.163 1109.61 121.365L1108.76 121.9L1107.92 122.435C1111.84 128.637 1118.21 133.845 1126.92 138.099L1127.36 137.2ZM1108.76 121.9L1109.63 121.398C1106.13 115.375 1104.36 108.254 1104.36 100H1103.36H1102.36C1102.36 108.546 1104.19 116.025 1107.9 122.402L1108.76 121.9ZM1103.36 100H1104.36C1104.36 86.0795 1109.44 74.7593 1119.62 65.9562L1118.96 65.2L1118.31 64.4438C1107.68 73.6407 1102.36 85.5205 1102.36 100H1103.36ZM1118.96 65.2L1119.62 65.949C1129.78 56.9635 1144.31 52.4 1163.36 52.4V51.4V50.4C1144.01 50.4 1128.94 55.0365 1118.3 64.451L1118.96 65.2ZM1163.36 51.4V52.4C1176.24 52.4 1186.97 54.7783 1195.58 59.4779L1196.06 58.6L1196.54 57.7221C1187.56 52.8217 1176.48 50.4 1163.36 50.4V51.4ZM1196.06 58.6L1195.61 59.4904C1204.46 64.0174 1211.32 70.1021 1216.22 77.7397L1217.06 77.2L1217.9 76.6603C1212.8 68.6978 1205.66 62.3826 1196.52 57.7096L1196.06 58.6ZM1217.06 77.2L1216.24 77.7647C1221.35 85.2448 1224.7 93.5103 1226.28 102.571L1227.26 102.4L1228.25 102.229C1226.62 92.8896 1223.17 84.3552 1217.89 76.6353L1217.06 77.2ZM1227.26 102.4L1227.19 101.402L1200.79 103.202L1200.86 104.2L1200.93 105.198L1227.33 103.398L1227.26 102.4ZM1200.86 104.2L1201.84 103.99C1200.61 98.2589 1198.35 93.2207 1195.06 88.894L1194.26 89.5L1193.47 90.106C1196.57 94.1792 1198.71 98.9411 1199.88 104.41L1200.86 104.2ZM1194.26 89.5L1195.07 88.9118C1191.76 84.3663 1187.43 80.8597 1182.08 78.392L1181.66 79.3L1181.24 80.2079C1186.3 82.5403 1190.36 85.8336 1193.45 90.0882L1194.26 89.5ZM1181.66 79.3L1182.11 78.4056C1176.74 75.7216 1170.38 74.4 1163.06 74.4V75.4V76.4C1170.14 76.4 1176.18 77.6784 1181.21 80.1944L1181.66 79.3ZM1163.06 75.4V74.4C1151.57 74.4 1142.89 76.6121 1137.23 81.2248L1137.86 82L1138.49 82.7752C1143.63 78.5879 1151.76 76.4 1163.06 76.4V75.4ZM1137.86 82L1137.23 81.2248C1131.6 85.8093 1128.76 91.691 1128.76 98.8H1129.76H1130.76C1130.76 92.309 1133.32 86.9907 1138.49 82.7752L1137.86 82ZM1129.76 98.8H1128.76C1128.76 104.155 1130 108.67 1132.54 112.277L1133.36 111.7L1134.18 111.123C1131.92 107.93 1130.76 103.845 1130.76 98.8H1129.76ZM1133.36 111.7L1132.59 112.331C1135.33 115.712 1139.6 118.495 1145.3 120.731L1145.66 119.8L1146.03 118.869C1140.52 116.705 1136.59 114.088 1134.14 111.069L1133.36 111.7ZM1145.66 119.8L1145.33 120.742C1151 122.769 1158.57 124.581 1167.99 126.186L1168.16 125.2L1168.33 124.214C1158.96 122.619 1151.52 120.831 1146 118.858L1145.66 119.8ZM1168.16 125.2L1167.99 126.185C1184.16 128.979 1196.66 132.362 1205.56 136.314L1205.96 135.4L1206.37 134.486C1197.26 130.438 1184.57 127.021 1168.33 124.215L1168.16 125.2ZM1205.96 135.4L1205.56 136.314C1214.45 140.267 1220.56 145.058 1224.01 150.627L1224.86 150.1L1225.71 149.573C1221.97 143.542 1215.47 138.533 1206.37 134.486L1205.96 135.4ZM1224.86 150.1L1224.01 150.627C1227.49 156.236 1229.26 163.143 1229.26 171.4H1230.26H1231.26C1231.26 162.857 1229.43 155.564 1225.71 149.573L1224.86 150.1ZM1230.26 171.4H1229.26C1229.26 180.995 1226.53 189.169 1221.08 195.975L1221.86 196.6L1222.64 197.225C1228.4 190.031 1231.26 181.405 1231.26 171.4H1230.26ZM1221.86 196.6L1221.08 195.978C1215.81 202.617 1208.56 207.72 1199.3 211.266L1199.66 212.2L1200.02 213.134C1209.56 209.48 1217.12 204.183 1222.64 197.222L1221.86 196.6ZM1199.66 212.2L1199.3 211.269C1190.23 214.815 1179.86 216.6 1168.16 216.6V217.6V218.6C1180.06 218.6 1190.69 216.785 1200.03 213.131L1199.66 212.2Z" fill="url(#paint1_linear_2313_2095)" mask="url(#path-1-outside-1_2313_2095)"/>
<defs>
<linearGradient id="paint0_linear_2313_2095" x1="610.5" y1="1" x2="611" y2="237" gradientUnits="userSpaceOnUse">
<stop stop-color="#0052DF"/>
<stop offset="0.72861" stop-color="#0052DF" stop-opacity="0"/>
</linearGradient>
<linearGradient id="paint1_linear_2313_2095" x1="610.5" y1="1" x2="610.5" y2="214" gradientUnits="userSpaceOnUse">
<stop stop-color="#BCD4FF"/>
<stop offset="1" stop-color="white"/>
</linearGradient>
</defs>
</svg>
