<svg width="50" height="37" viewBox="0 0 50 37" fill="none" xmlns="http://www.w3.org/2000/svg">
<path d="M36.4867 6.16669C37.49 6.27669 38.4934 6.38669 39.5272 6.50002C39.5272 9.03002 39.5272 11.56 39.5272 14.1667C40.0289 14.3317 40.0289 14.3317 40.5407 14.5C40.8752 14.83 40.8752 14.83 41.2164 15.1667C41.2164 12.9667 41.2164 10.7667 41.2164 8.50002C41.9968 8.50002 42.7772 8.50002 43.5813 8.50002C43.588 8.73887 43.5947 8.97773 43.6016 9.22382C43.6337 10.3021 43.6707 11.3802 43.708 12.4584C43.7236 13.0223 43.7236 13.0223 43.7396 13.5977C43.7527 13.9565 43.7658 14.3153 43.7792 14.6849C43.7898 15.0166 43.8004 15.3482 43.8114 15.69C43.8422 16.5595 43.8422 16.5595 44.5948 17.1667C44.6715 18.0379 44.6715 18.0379 44.6608 19.1276C44.6575 19.7109 44.6575 19.7109 44.6542 20.306C44.6457 20.9177 44.6457 20.9177 44.637 21.5417C44.634 21.952 44.6309 22.3624 44.6278 22.7852C44.6198 23.8013 44.6087 24.8173 44.5948 25.8334C43.9892 25.6745 43.384 25.5146 42.7789 25.3542C42.4418 25.2652 42.1048 25.1763 41.7575 25.0847C40.8786 24.8334 40.8786 24.8334 40.2029 24.5C40.2029 24.83 40.2029 25.16 40.2029 25.5C43.7147 26.16 43.7147 26.16 47.2975 26.8334C47.2975 28.5376 47.2642 29.6124 46.8541 31.1875C46.7718 31.5145 46.6894 31.8415 46.6046 32.1784C46.284 33.1667 46.284 33.1667 45.2705 35.1667C32.561 35.1667 19.8515 35.1667 6.75694 35.1667C6.86842 33.0767 6.97991 30.9867 7.09478 28.8334C6.8718 28.3934 6.64883 27.9534 6.4191 27.5C6.30761 27.17 6.19613 26.84 6.08126 26.5C5.459 25.8158 5.459 25.8158 4.72991 25.5C4.19164 24.8174 3.6926 24.1125 3.18853 23.405C3.02826 23.2163 2.868 23.0277 2.70288 22.8334C2.53396 22.6667 2.70288 22.8334 2.19612 22.5C2.0272 22.1667 2.0272 22.3334 1.90052 22.0417C1.68937 21.1667 1.75992 21.1198 1.01369 20.5C0.181609 18.2398 0.264889 15.8691 0.338019 13.5C11.2572 13.5335 23.0747 17.3834 32.7705 22.1667C32.7705 21.9467 32.7705 21.7267 32.7705 21.5C32.5814 21.451 32.3924 21.402 32.1977 21.3516C29.1064 20.4984 26.1791 19.2483 23.311 17.8334C23.4225 16.2934 23.534 14.7534 23.6488 13.1667C25.0982 13.1667 26.5475 13.1667 28.0407 13.1667C28.0407 12.6167 28.0407 12.0667 28.0407 11.5C29.8846 11.7068 31.6322 12.1233 33.425 12.5938C34.5442 12.8529 35.6865 13.0063 36.8245 13.1667C36.6573 9.70169 36.6573 9.70169 36.4867 6.16669ZM25.6759 15.1667C25.6759 15.8267 25.6759 16.4867 25.6759 17.1667C26.0103 17.1667 26.3448 17.1667 26.6894 17.1667C26.6894 16.5067 26.6894 15.8467 26.6894 15.1667C26.3549 15.1667 26.0205 15.1667 25.6759 15.1667ZM28.3786 15.1667C28.3786 15.8267 28.3786 16.4867 28.3786 17.1667C28.713 17.1667 29.0475 17.1667 29.3921 17.1667C29.3921 16.5067 29.3921 15.8467 29.3921 15.1667C29.0576 15.1667 28.7232 15.1667 28.3786 15.1667ZM31.0813 15.1667C31.0813 15.8267 31.0813 16.4867 31.0813 17.1667C31.5272 17.1667 31.9732 17.1667 32.4326 17.1667C32.4326 16.5067 32.4326 15.8467 32.4326 15.1667C31.9867 15.1667 31.5407 15.1667 31.0813 15.1667ZM33.784 15.1667C33.784 15.8267 33.784 16.4867 33.784 17.1667C34.2299 17.1667 34.6759 17.1667 35.1353 17.1667C35.1353 16.5067 35.1353 15.8467 35.1353 15.1667C34.6894 15.1667 34.2434 15.1667 33.784 15.1667ZM33.1083 21.8334C32.9968 22.0534 32.8853 22.2734 32.7705 22.5C33.4394 22.72 34.1083 22.94 34.7975 23.1667C34.909 22.9467 35.0205 22.7267 35.1353 22.5C34.4664 22.28 33.7975 22.06 33.1083 21.8334ZM35.4732 22.8334C35.3617 23.0534 35.2502 23.2734 35.1353 23.5C35.7963 23.7792 36.458 24.0567 37.1201 24.3334C37.4885 24.488 37.857 24.6427 38.2366 24.8021C39.124 25.2069 39.124 25.2069 39.865 25.1667C39.865 24.8367 39.865 24.5067 39.865 24.1667C39.2602 23.9432 38.6548 23.7212 38.0492 23.5C37.7121 23.3763 37.375 23.2525 37.0277 23.125C36.1966 22.7979 36.1966 22.7979 35.4732 22.8334Z" fill="#FEFEFE"/>
<path d="M36.4865 6.16669C37.4899 6.27669 38.4933 6.38669 39.5271 6.50002C39.5271 9.03002 39.5271 11.56 39.5271 14.1667C39.8615 14.2767 40.196 14.3867 40.5406 14.5C40.7636 14.72 40.9865 14.94 41.2163 15.1667C41.2163 12.9667 41.2163 10.7667 41.2163 8.50002C41.9967 8.50002 42.7771 8.50002 43.5811 8.50002C43.5912 8.8583 43.5912 8.8583 43.6014 9.22382C43.6335 10.3021 43.6706 11.3802 43.7078 12.4584C43.7183 12.8343 43.7287 13.2103 43.7395 13.5977C43.7591 14.1359 43.7591 14.1359 43.7791 14.6849C43.7897 15.0166 43.8003 15.3482 43.8112 15.69C43.8421 16.5595 43.8421 16.5595 44.5946 17.1667C44.6713 18.0379 44.6713 18.0379 44.6606 19.1276C44.6584 19.5165 44.6563 19.9054 44.654 20.306C44.6484 20.7138 44.6427 21.1216 44.6369 21.5417C44.6338 21.952 44.6308 22.3624 44.6276 22.7852C44.6196 23.8013 44.6085 24.8173 44.5946 25.8334C42.0586 25.1812 39.6561 24.4086 37.2176 23.4636C36.1142 23.1571 35.541 23.1723 34.4595 23.5C34.4595 23.17 34.4595 22.84 34.4595 22.5C33.9021 22.39 33.3446 22.28 32.7703 22.1667C32.7703 21.9467 32.7703 21.7267 32.7703 21.5C32.5813 21.451 32.3923 21.4021 32.1976 21.3516C29.1063 20.4984 26.1789 19.2483 23.3109 17.8334C23.4223 16.2934 23.5338 14.7534 23.6487 13.1667C25.098 13.1667 26.5473 13.1667 28.0406 13.1667C28.0406 12.6167 28.0406 12.0667 28.0406 11.5C29.8844 11.7068 31.6321 12.1233 33.4249 12.5938C34.544 12.8529 35.6863 13.0063 36.8244 13.1667C36.6571 9.70169 36.6571 9.70169 36.4865 6.16669ZM25.6757 15.1667C25.6757 15.8267 25.6757 16.4867 25.6757 17.1667C26.0102 17.1667 26.3446 17.1667 26.6892 17.1667C26.6892 16.5067 26.6892 15.8467 26.6892 15.1667C26.3548 15.1667 26.0203 15.1667 25.6757 15.1667ZM28.3784 15.1667C28.3784 15.8267 28.3784 16.4867 28.3784 17.1667C28.7129 17.1667 29.0473 17.1667 29.3919 17.1667C29.3919 16.5067 29.3919 15.8467 29.3919 15.1667C29.0575 15.1667 28.723 15.1667 28.3784 15.1667ZM31.0811 15.1667C31.0811 15.8267 31.0811 16.4867 31.0811 17.1667C31.5271 17.1667 31.973 17.1667 32.4325 17.1667C32.4325 16.5067 32.4325 15.8467 32.4325 15.1667C31.9865 15.1667 31.5406 15.1667 31.0811 15.1667ZM33.7838 15.1667C33.7838 15.8267 33.7838 16.4867 33.7838 17.1667C34.2298 17.1667 34.6757 17.1667 35.1352 17.1667C35.1352 16.5067 35.1352 15.8467 35.1352 15.1667C34.6892 15.1667 34.2433 15.1667 33.7838 15.1667Z" fill="#FEFEFE"/>
<path d="M23.6488 13.1667C25.0981 13.1667 26.5474 13.1667 28.0406 13.1667C28.0406 13.2767 28.0406 13.3867 28.0406 13.5C26.9258 13.61 25.8109 13.72 24.6623 13.8334C24.4393 14.4934 24.2163 15.1534 23.9866 15.8334C23.8751 15.8334 23.7636 15.8334 23.6488 15.8334C23.6488 14.9534 23.6488 14.0734 23.6488 13.1667Z" fill="#FEFEFE"/>
<path d="M44.2568 16.5C44.4798 16.5 44.7028 16.5 44.9325 16.5C44.821 16.72 44.7095 16.94 44.5947 17.1667C44.4832 16.9467 44.3717 16.7267 44.2568 16.5Z" fill="#FEFEFE"/>
<path d="M38.1758 24.1667C38.8514 24.5 38.8514 24.5 38.8514 24.5L38.1758 24.1667Z" fill="#FEFEFE"/>
<path d="M36.4865 23.5C37.1622 23.8333 37.1622 23.8333 37.1622 23.8333L36.4865 23.5Z" fill="#FEFEFE"/>
</svg>
