<svg width="50" height="36" viewBox="0 0 50 36" fill="none" xmlns="http://www.w3.org/2000/svg">
<path d="M36.4867 5.6665C37.49 5.7765 38.4934 5.8865 39.5272 5.99984C39.5272 8.52984 39.5272 11.0598 39.5272 13.6665C40.0289 13.8315 40.0289 13.8315 40.5407 13.9998C40.8752 14.3298 40.8752 14.3298 41.2164 14.6665C41.2164 12.4665 41.2164 10.2665 41.2164 7.99984C41.9968 7.99984 42.7772 7.99984 43.5813 7.99984C43.5879 8.23869 43.5946 8.47754 43.6015 8.72363C43.6336 9.80194 43.6707 10.88 43.7079 11.9582C43.7236 12.5221 43.7236 12.5221 43.7396 13.0975C43.7527 13.4563 43.7657 13.8151 43.7792 14.1847C43.7898 14.5164 43.8004 14.8481 43.8114 15.1898C43.8422 16.0594 43.8422 16.0594 44.5948 16.6665C44.6715 17.5378 44.6715 17.5378 44.6608 18.6274C44.6575 19.2107 44.6575 19.2107 44.6542 19.8058C44.6457 20.4175 44.6457 20.4175 44.637 21.0415C44.6339 21.4519 44.6309 21.8622 44.6278 22.285C44.6198 23.3011 44.6086 24.3171 44.5948 25.3332C43.9892 25.1743 43.384 25.0144 42.7789 24.854C42.4418 24.7651 42.1047 24.6761 41.7575 24.5845C40.8786 24.3332 40.8786 24.3332 40.2029 23.9998C40.2029 24.3298 40.2029 24.6598 40.2029 24.9998C43.7147 25.6598 43.7147 25.6598 47.2975 26.3332C47.2975 28.0375 47.2642 29.1122 46.8541 30.6873C46.7717 31.0143 46.6894 31.3413 46.6046 31.6782C46.284 32.6665 46.284 32.6665 45.2704 34.6665C32.561 34.6665 19.8515 34.6665 6.75693 34.6665C6.86842 32.5765 6.9799 30.4865 7.09477 28.3332C6.87179 27.8932 6.64882 27.4532 6.41909 26.9998C6.30761 26.6698 6.19612 26.3398 6.08125 25.9998C5.459 25.3156 5.45899 25.3156 4.7299 24.9998C4.19164 24.3172 3.6926 23.6123 3.18852 22.9048C3.02826 22.7162 2.86799 22.5275 2.70288 22.3332C2.53395 22.1665 2.70287 22.3332 2.19611 21.9998C2.0272 21.6665 2.0272 21.8332 1.90051 21.5415C1.68936 20.6665 1.75991 20.6196 1.01369 19.9998C0.181601 17.7396 0.264881 15.3689 0.338011 12.9998C11.2572 13.0333 23.0747 16.8833 32.7704 21.6665C32.7704 21.4465 32.7704 21.2265 32.7704 20.9998C32.5814 20.9509 32.3924 20.9019 32.1977 20.8514C29.1064 19.9982 26.1791 18.7481 23.311 17.3332C23.4225 15.7932 23.534 14.2532 23.6488 12.6665C25.0981 12.6665 26.5475 12.6665 28.0407 12.6665C28.0407 12.1165 28.0407 11.5665 28.0407 10.9998C29.8846 11.2066 31.6322 11.6231 33.425 12.0936C34.5442 12.3527 35.6865 12.5061 36.8245 12.6665C36.6573 9.2015 36.6573 9.2015 36.4867 5.6665ZM25.6758 14.6665C25.6758 15.3265 25.6758 15.9865 25.6758 16.6665C26.0103 16.6665 26.3448 16.6665 26.6894 16.6665C26.6894 16.0065 26.6894 15.3465 26.6894 14.6665C26.3549 14.6665 26.0204 14.6665 25.6758 14.6665ZM28.3786 14.6665C28.3786 15.3265 28.3786 15.9865 28.3786 16.6665C28.713 16.6665 29.0475 16.6665 29.3921 16.6665C29.3921 16.0065 29.3921 15.3465 29.3921 14.6665C29.0576 14.6665 28.7231 14.6665 28.3786 14.6665ZM31.0813 14.6665C31.0813 15.3265 31.0813 15.9865 31.0813 16.6665C31.5272 16.6665 31.9731 16.6665 32.4326 16.6665C32.4326 16.0065 32.4326 15.3465 32.4326 14.6665C31.9867 14.6665 31.5407 14.6665 31.0813 14.6665ZM33.784 14.6665C33.784 15.3265 33.784 15.9865 33.784 16.6665C34.2299 16.6665 34.6758 16.6665 35.1353 16.6665C35.1353 16.0065 35.1353 15.3465 35.1353 14.6665C34.6894 14.6665 34.2434 14.6665 33.784 14.6665ZM33.1083 21.3332C32.9968 21.5532 32.8853 21.7732 32.7704 21.9998C33.4394 22.2198 34.1083 22.4398 34.7975 22.6665C34.909 22.4465 35.0204 22.2265 35.1353 21.9998C34.4664 21.7798 33.7975 21.5598 33.1083 21.3332ZM35.4731 22.3332C35.3617 22.5532 35.2502 22.7732 35.1353 22.9998C35.7963 23.279 36.458 23.5565 37.1201 23.8332C37.4885 23.9879 37.857 24.1425 38.2366 24.3019C39.124 24.7067 39.124 24.7067 39.865 24.6665C39.865 24.3365 39.865 24.0065 39.865 23.6665C39.2602 23.443 38.6548 23.2211 38.0492 22.9998C37.7121 22.8761 37.375 22.7523 37.0277 22.6248C36.1966 22.2977 36.1966 22.2977 35.4731 22.3332Z" fill="#0C0831"/>
<path d="M36.4865 5.6665C37.4899 5.7765 38.4933 5.8865 39.5271 5.99984C39.5271 8.52984 39.5271 11.0598 39.5271 13.6665C39.8615 13.7765 40.196 13.8865 40.5406 13.9998C40.7636 14.2198 40.9865 14.4398 41.2163 14.6665C41.2163 12.4665 41.2163 10.2665 41.2163 7.99984C41.9967 7.99984 42.7771 7.99984 43.5811 7.99984C43.5912 8.35812 43.5912 8.35812 43.6014 8.72363C43.6335 9.80194 43.6706 10.88 43.7078 11.9582C43.7183 12.3341 43.7287 12.7101 43.7395 13.0975C43.7591 13.6357 43.7591 13.6357 43.7791 14.1847C43.7897 14.5164 43.8003 14.8481 43.8112 15.1898C43.8421 16.0594 43.8421 16.0594 44.5946 16.6665C44.6713 17.5378 44.6713 17.5378 44.6606 18.6274C44.6584 19.0163 44.6563 19.4052 44.654 19.8058C44.6484 20.2136 44.6427 20.6214 44.6369 21.0415C44.6338 21.4519 44.6308 21.8622 44.6276 22.285C44.6196 23.3011 44.6085 24.3171 44.5946 25.3332C42.0586 24.681 39.6561 23.9084 37.2176 22.9634C36.1142 22.6569 35.541 22.6721 34.4595 22.9998C34.4595 22.6698 34.4595 22.3398 34.4595 21.9998C33.9021 21.8898 33.3446 21.7798 32.7703 21.6665C32.7703 21.4465 32.7703 21.2265 32.7703 20.9998C32.5813 20.9509 32.3923 20.9019 32.1976 20.8514C29.1063 19.9982 26.1789 18.7481 23.3109 17.3332C23.4223 15.7932 23.5338 14.2532 23.6487 12.6665C25.098 12.6665 26.5473 12.6665 28.0406 12.6665C28.0406 12.1165 28.0406 11.5665 28.0406 10.9998C29.8844 11.2066 31.6321 11.6231 33.4249 12.0936C34.544 12.3527 35.6863 12.5061 36.8244 12.6665C36.6571 9.2015 36.6571 9.2015 36.4865 5.6665ZM25.6757 14.6665C25.6757 15.3265 25.6757 15.9865 25.6757 16.6665C26.0102 16.6665 26.3446 16.6665 26.6892 16.6665C26.6892 16.0065 26.6892 15.3465 26.6892 14.6665C26.3548 14.6665 26.0203 14.6665 25.6757 14.6665ZM28.3784 14.6665C28.3784 15.3265 28.3784 15.9865 28.3784 16.6665C28.7129 16.6665 29.0473 16.6665 29.3919 16.6665C29.3919 16.0065 29.3919 15.3465 29.3919 14.6665C29.0575 14.6665 28.723 14.6665 28.3784 14.6665ZM31.0811 14.6665C31.0811 15.3265 31.0811 15.9865 31.0811 16.6665C31.5271 16.6665 31.973 16.6665 32.4325 16.6665C32.4325 16.0065 32.4325 15.3465 32.4325 14.6665C31.9865 14.6665 31.5406 14.6665 31.0811 14.6665ZM33.7838 14.6665C33.7838 15.3265 33.7838 15.9865 33.7838 16.6665C34.2298 16.6665 34.6757 16.6665 35.1352 16.6665C35.1352 16.0065 35.1352 15.3465 35.1352 14.6665C34.6892 14.6665 34.2433 14.6665 33.7838 14.6665Z" fill="#12229D"/>
<path d="M23.6488 12.6665C25.0981 12.6665 26.5474 12.6665 28.0406 12.6665C28.0406 12.7765 28.0406 12.8865 28.0406 12.9998C26.9258 13.1098 25.8109 13.2198 24.6623 13.3332C24.4393 13.9932 24.2163 14.6532 23.9866 15.3332C23.8751 15.3332 23.7636 15.3332 23.6488 15.3332C23.6488 14.4532 23.6488 13.5732 23.6488 12.6665Z" fill="#12229D"/>
<path d="M44.2568 16C44.4798 16 44.7028 16 44.9325 16C44.821 16.22 44.7095 16.44 44.5947 16.6667C44.4832 16.4467 44.3717 16.2267 44.2568 16Z" fill="#0C0831"/>
<path d="M38.1758 23.6665C38.8514 23.9998 38.8514 23.9998 38.8514 23.9998L38.1758 23.6665Z" fill="#0C0831"/>
<path d="M36.4865 23C37.1622 23.3333 37.1622 23.3333 37.1622 23.3333L36.4865 23Z" fill="#0C0831"/>
</svg>
